{"title":"The Musketeers S01E07 A Rebellious Woman HDTV x264 AAC E-Subs [G","uid":9735691,"size":176505705,"categoryP":"video","categoryS":"tv_shows","magnet":"?xt=urn:btih:3eef88844fc73002a74a23626bea01d92e29ac00&amp;dn=The+Musketeers+S01E07+A+Rebellious+Woman+HDTV+x264+AAC+E-Subs+%5BG&amp;tr=udp%3A%2F%2Ftracker.openbittorrent.com%3A80&amp;tr=udp%3A%2F%2Fopen.demonii.com%3A1337&amp;tr=udp%3A%2F%2Ftracker.coppersurfer.tk%3A6969&amp;tr=udp%3A%2F%2Fexodus.desync.com%3A6969","seeders":1,"leechers":0,"uploader":"canc232","files":1,"time":1394440734,"description":"The Musketeers S01E07 A Rebellious Woman HDTV x264 AAC E-Subs [GWC]\n\n\nSTORYLINE :\nSet on the streets of 17th century Paris, series gives a contemporary take on the classic story about a group of highly trained soldiers and bodyguards assigned to protect King and country. \n\n\nSCREENS : &lt;a href=&quot;\nhttp://i.imgur.com/OQeeYaj.jpg&quot; rel=&quot;nofollow&quot; target=&quot;_NEW&quot;&gt;\nhttp://i.imgur.com/OQeeYaj.jpg&lt;/a&gt; &lt;a href=&quot;\nhttp://i.imgur.com/P6yKg1K.jpg&quot; rel=&quot;nofollow&quot; target=&quot;_NEW&quot;&gt;\nhttp://i.imgur.com/P6yKg1K.jpg&lt;/a&gt; &lt;a href=&quot;\nhttp://i.imgur.com/E0XRcVU.jpg&quot; rel=&quot;nofollow&quot; target=&quot;_NEW&quot;&gt;\nhttp://i.imgur.com/E0XRcVU.jpg&lt;/a&gt;\n\n\nMEDIA INFO :\nGeneral \nFormat : MPEG-4 \nFormat profile : Base Media \nFile size : 168 MiB \nDuration : 54mn 53s \nOverall bit rate mode : Variable \nOverall bit rate : 429 Kbps \n\nVideo \nFormat : AVC \nFormat profile : &lt;a class=&quot;__cf_email__&quot; href=&quot;/cdn-cgi/l/email-protection&quot; data-cfemail=&quot;a7efcec0cfe7eb948997&quot;&gt;[email&amp;#160;protected]&lt;/a&gt;&lt;script cf-hash='f9e31' type=&quot;text/javascript&quot;&gt;\n/* &lt;![CDATA[ */!function(){try{var t=&quot;currentScript&quot;in document?document.currentScript:function(){for(var t=document.getElementsByTagName(&quot;script&quot;),e=t.length;e--;)if(t[e].getAttribute(&quot;cf-hash&quot;))return t[e]}();if(t&amp;&amp;t.previousSibling){var e,r,n,i,c=t.previousSibling,a=c.getAttribute(&quot;data-cfemail&quot;);if(a){for(e=&quot;&quot;,r=parseInt(a.substr(0,2),16),n=2;a.length-n;n+=2)i=parseInt(a.substr(n,2),16)^r,e+=String.fromCharCode(i);e=document.createTextNode(e),c.parentNode.replaceChild(e,c)}}}catch(u){}}();/* ]]&gt; */&lt;/script&gt; \nFormat settings, CABAC : Yes \nFormat settings, ReFrames : 4 frames \nDuration : 54mn 53s \nBit rate : 365 Kbps \nMaximum bit rate : 2 335 Kbps \nWidth : 720 pixels \nHeight : 404 pixels \nDisplay aspect ratio : 16:9 \nFrame rate : 25.000 fps \nStream size : 143 MiB (85%) \nTitle : The Musketeers S01E07 A Rebellious Woman HDTV x264 AAC E-Subs [GWC] \nWriting library : x264 core\n\nAudio \nFormat : AAC \nFormat profile : HE-AAC / LC \nDuration : 54mn 53s \nBit rate mode : Variable \nChannel(s) : 2 channels \nSampling rate : 48.0 KHz / 24.0 KHz \nStream size : 23.6 MiB (14%) \nLanguage : English \n\nText \nFormat : Timed Text \nTitle : English Subtitle by Stubbie \nLanguage : English ","torrent":{"xt":"urn:btih:3eef88844fc73002a74a23626bea01d92e29ac00","amp;dn":"The+Musketeers+S01E07+A+Rebellious+Woman+HDTV+x264+AAC+E-Subs+%5BG","amp;tr":["udp%3A%2F%2Ftracker.openbittorrent.com%3A80","udp%3A%2F%2Fopen.demonii.com%3A1337","udp%3A%2F%2Ftracker.coppersurfer.tk%3A6969","udp%3A%2F%2Fexodus.desync.com%3A6969"],"infoHash":"3eef88844fc73002a74a23626bea01d92e29ac00","infoHashBuffer":{"type":"Buffer","data":[62,239,136,132,79,199,48,2,167,74,35,98,107,234,1,217,46,41,172,0]},"announce":[],"urlList":[]}}